# xmcd
#
# Track frame offsets: 
#        150
#        17056
#        39506
#        65168
#        75691
#        90683
#        101833
#        118223
#        135383
#        152018
#        163465
#        174607
#
# Disc length: 2561 seconds
#
# Revision: 0
# Processed by: cddbd v1.4PL0 Copyright (c) Steve Scherf et al.
# Submitted via: ExactAudioCopy v0.90b4
#
DISCID=a309ff0c
DTITLE=Mafalda Arnauth - Esta voz que me atravessa
DYEAR=2001
DGENRE=National Folk
TTITLE0=Esta voz que me atravessa
TTITLE1=O instante dos sentidos
TTITLE2=De não saber ser loucura
TTITLE3=Coisa assim
TTITLE4=Este silêncio que me corta
TTITLE5=Até logo, meu amor
TTITLE6=Não há fado que te resista
TTITLE7=Lusitana
TTITLE8=Há noite aqui
TTITLE9=Ai do vento
TTITLE10=Ora vai
TTITLE11=A casa e o mundo
EXTD=
EXTT0=
EXTT1=
EXTT2=
EXTT3=
EXTT4=
EXTT5=
EXTT6=
EXTT7=
EXTT8=
EXTT9=
EXTT10=
EXTT11=
PLAYORDER=
